<?xml version="1.0" ?><!DOCTYPE svg  PUBLIC '-//W3C//DTD SVG 1.1//EN'  'http://www.w3.org/Graphics/SVG/1.1/DTD/svg11.dtd'><svg enable-background="new 0 0 24 24" height="24px" id="Layer_1" version="1.1" viewBox="0 0 24 24" width="24px" xml:space="preserve" xmlns="http://www.w3.org/2000/svg" xmlns:xlink="http://www.w3.org/1999/xlink"><path d="M22,2h-6V1c0-0.6-0.4-1-1-1h-4c-0.6,0-1,0.4-1,1v1H4C3.4,2,3,2.4,3,3v4c0,0.6,0.4,1,1,1c0,1,0,15,0,15c0,0.6,0.5,1,1,1h16  c0.6,0,0.9-0.4,0.9-1V8c1,0,1-0.4,1-1V3C23,2.4,22.6,2,22,2z M11,1h4v1h-4V1z M6,22V8h2v14H6z M9,22V8h2v14H9z M12,22V8h2v14H12z   M15,22V8h2v14H15z M20,22h-2V8h2V22z M21,6H5V4h16V6z"/></svg>