<?xml version="1.0" encoding="utf-8"?>
<!-- Generator: Adobe Illustrator 24.1.0, SVG Export Plug-In . SVG Version: 6.00 Build 0)  -->
<svg version="1.1" id="Layer_1" xmlns="http://www.w3.org/2000/svg" xmlns:xlink="http://www.w3.org/1999/xlink" x="0px" y="0px"
	 viewBox="0 0 140 140" style="enable-background:new 0 0 140 140;" xml:space="preserve">
<style type="text/css">
	.st0{fill:#CCBEB0;}
	.st1{fill:#525354;}
	.st2{fill:#998888;}
</style>
<circle class="st0" cx="70" cy="70" r="64"/>
<path class="st1" d="M27.6,44.1l15.6-15.6c0.4-0.4,1-0.4,1.4,0l67.9,67.9c0.4,0.4,0.4,1,0,1.4l-15.6,15.6c-0.4,0.4-1,0.4-1.4,0
	L27.6,45.5C27.2,45.2,27.2,44.5,27.6,44.1z"/>
<path class="st1" d="M43.1,113.4L27.6,97.9c-0.4-0.4-0.4-1,0-1.4l67.9-67.9c0.4-0.4,1-0.4,1.4,0l15.6,15.6c0.4,0.4,0.4,1,0,1.4
	l-67.9,67.9C44.2,113.8,43.5,113.8,43.1,113.4z"/>
<path class="st2" d="M27.6,43.1l15.6-15.6c0.4-0.4,1-0.4,1.4,0l67.9,67.9c0.4,0.4,0.4,1,0,1.4l-15.6,15.6c-0.4,0.4-1,0.4-1.4,0
	L27.6,44.5C27.2,44.2,27.2,43.5,27.6,43.1z"/>
<path class="st2" d="M43.1,112.4L27.6,96.9c-0.4-0.4-0.4-1,0-1.4l67.9-67.9c0.4-0.4,1-0.4,1.4,0l15.6,15.6c0.4,0.4,0.4,1,0,1.4
	l-67.9,67.9C44.2,112.8,43.5,112.8,43.1,112.4z"/>
</svg>
